<svg version="1.1" id="icons" xmlns="http://www.w3.org/2000/svg" x="0" y="0" viewBox="0 0 256 256" style="enable-background:new 0 0 256 256" xml:space="preserve"><style>.st0{fill:none;stroke:#3d5a80;stroke-width:7;stroke-linecap:round;stroke-miterlimit:10}</style><path class="st0" d="M48.12 51H27.88c-.49 0-.88-.39-.88-.88V29.88c0-.49.39-.88.88-.88h20.24c.49 0 .88.39.88.88v20.24c0 .49-.39.88-.88.88zM48.12 227H27.88c-.49 0-.88-.39-.88-.88v-20.24c0-.49.39-.88.88-.88h20.24c.49 0 .88.39.88.88v20.24c0 .49-.39.88-.88.88zM228.12 51h-20.24c-.49 0-.88-.39-.88-.88V29.88c0-.49.39-.88.88-.88h20.24c.49 0 .88.39.88.88v20.24c0 .49-.39.88-.88.88zM228.12 227h-20.24c-.49 0-.88-.39-.88-.88v-20.24c0-.49.39-.88.88-.88h20.24c.49 0 .88.39.88.88v20.24c0 .49-.39.88-.88.88z"/><g id="XMLID_505_"><path id="XMLID_506_" class="st0" d="M88.89 76h86.07c.57 0 1.04.47 1.04 1.04v37.15c0 .43-.36.78-.8.78h0c-.39 0-.73-.29-.79-.66-1.1-6.93-2.9-11.37-5.42-13.3-2.59-2-5.76-3-9.52-3h-19.81c-.37 0-.67.3-.67.67V168c0 2.85.33 5.27 1 7.26.66 1.99 2.01 3.61 4.05 4.87 1.85 1.14 4.48 1.76 7.88 1.86.6.02 1.07.5 1.07 1.08v-.15c0 .59-.49 1.08-1.09 1.08h-49.45c-.6 0-1.09-.48-1.09-1.08h0c0-.58.46-1.06 1.05-1.07 5.12-.15 8.47-1.42 10.05-3.81 1.69-2.55 2.53-5.94 2.53-10.16V98.67c0-.37-.3-.67-.67-.67h-19.8c-3.46 0-6.27 1.07-8.45 3.21-2.1 2.07-4.15 6.43-6.16 13.07-.12.4-.5.69-.94.69h0a.96.96 0 0 1-.97-.95V77.04c0-.57.47-1.04 1.04-1.04h9.85z"/></g><path class="st0" d="M64 40h6M94 40h6M124 40h6M154 40h6M184 40h6M64 216h6M94 216h6M124 216h6M154 216h6M184 216h6M38 191v-6M38 161v-6M38 131v-6M38 101v-6M38 71v-6M218 191v-6M218 161v-6M218 131v-6M218 101v-6M218 71v-6"/></svg>